<svg width="34" height="33" viewBox="0 0 34 33" fill="none" xmlns="http://www.w3.org/2000/svg">
<path d="M16.6493 0C7.45533 0 0 7.45395 0 16.6493C0 24.0053 4.77052 30.2462 11.3858 32.4477C12.2179 32.6018 12.5233 32.0865 12.5233 31.6468C12.5233 31.2497 12.5079 29.9382 12.5007 28.547C7.86889 29.5542 6.89151 26.5826 6.89151 26.5826C6.13415 24.6582 5.04291 24.1465 5.04291 24.1465C3.53233 23.1131 5.15678 23.1344 5.15678 23.1344C6.82865 23.2518 7.70898 24.8501 7.70898 24.8501C9.19392 27.3954 11.6039 26.6595 12.5539 26.2341C12.7034 25.158 13.1348 24.4236 13.611 24.0078C9.91296 23.5868 6.02552 22.1592 6.02552 15.7797C6.02552 13.962 6.67591 12.4767 7.74096 11.3108C7.56809 10.8914 6.99821 9.19806 7.90225 6.90475C7.90225 6.90475 9.30034 6.45728 12.482 8.61136C13.81 8.24247 15.2343 8.05747 16.6493 8.05113C18.0642 8.05747 19.4896 8.24247 20.8201 8.61136C23.9979 6.45728 25.3941 6.90475 25.3941 6.90475C26.3003 9.19806 25.7301 10.8914 25.5573 11.3108C26.6248 12.4767 27.2708 13.962 27.2708 15.7797C27.2708 22.1744 23.3759 23.5824 19.6685 23.9946C20.2657 24.5112 20.7978 25.5245 20.7978 27.0778C20.7978 29.3055 20.7785 31.0984 20.7785 31.6468C20.7785 32.0898 21.0782 32.609 21.9221 32.4455C28.5338 30.2415 33.2982 24.0028 33.2982 16.6493C33.2982 7.45395 25.844 0 16.6493 0ZM6.23569 23.7172C6.19902 23.7999 6.06889 23.8247 5.95033 23.7679C5.82957 23.7136 5.76175 23.6009 5.8009 23.5179C5.83674 23.4327 5.96715 23.409 6.08763 23.466C6.20867 23.5204 6.27759 23.6342 6.23569 23.7172ZM7.05464 24.448C6.97524 24.5216 6.82002 24.4874 6.7147 24.371C6.6058 24.255 6.5854 24.0997 6.6659 24.025C6.74779 23.9514 6.89832 23.9859 7.0075 24.1019C7.1164 24.2194 7.13763 24.3735 7.05464 24.448ZM7.61648 25.3829C7.51447 25.4538 7.34767 25.3873 7.24456 25.2393C7.14254 25.0912 7.14254 24.9137 7.24676 24.8425C7.35015 24.7714 7.51447 24.8354 7.61896 24.9823C7.7207 25.1329 7.7207 25.3104 7.61648 25.3829ZM8.56667 26.4657C8.47541 26.5664 8.28104 26.5394 8.13877 26.4021C7.9932 26.2678 7.95267 26.0773 8.04421 25.9766C8.13657 25.8757 8.33204 25.9041 8.47541 26.0403C8.61988 26.1743 8.66399 26.3662 8.56667 26.4657ZM9.79469 26.8313C9.75444 26.9617 9.56723 27.021 9.37865 26.9656C9.19034 26.9085 9.06711 26.7557 9.10515 26.624C9.1443 26.4927 9.33233 26.431 9.52229 26.4902C9.71032 26.547 9.83384 26.6987 9.79469 26.8313ZM11.1922 26.9863C11.1969 27.1236 11.037 27.2375 10.8391 27.24C10.64 27.2444 10.479 27.1333 10.4768 26.9982C10.4768 26.8595 10.6331 26.7468 10.8322 26.7434C11.0301 26.7396 11.1922 26.8499 11.1922 26.9863ZM12.5652 26.9337C12.5889 27.0677 12.4513 27.2053 12.2547 27.242C12.0614 27.2772 11.8825 27.1945 11.858 27.0616C11.834 26.9243 11.974 26.7868 12.167 26.7512C12.3639 26.717 12.5401 26.7975 12.5652 26.9337Z" fill="black"/>
</svg>
