<svg width="17" height="17" viewBox="0 0 17 17" fill="none" xmlns="http://www.w3.org/2000/svg">
<path d="M4.27894 1.64867C4.50935 1.68954 4.91256 1.74155 5.30834 1.83629C5.53688 1.89202 5.67064 1.85487 5.79699 1.64681C5.96422 1.37374 6.15752 1.11367 6.36376 0.870319C7.36714 -0.320428 9.19367 -0.283271 10.1524 0.944629C10.368 1.21956 10.5667 1.5075 10.7674 1.79357C10.8213 1.86974 10.8733 1.88459 10.9606 1.86787C11.3285 1.79542 11.6946 1.7137 12.0643 1.66725C13.4226 1.49635 14.6676 2.51433 14.794 3.87412C14.8348 4.31067 14.7252 4.72307 14.6527 5.14475C14.6267 5.29893 14.5393 5.47541 14.5876 5.59802C14.636 5.72062 14.8181 5.79492 14.9426 5.88595C15.1191 6.01598 15.2975 6.13859 15.4721 6.27048C16.7672 7.25131 16.7784 9.17026 15.4907 10.1604C15.2176 10.3703 14.9333 10.5672 14.6509 10.7678C14.5858 10.8143 14.5617 10.8551 14.5784 10.9406C14.6564 11.34 14.7456 11.7394 14.7902 12.1425C14.9333 13.4205 13.9132 14.6559 12.6311 14.7878C12.2632 14.8249 11.9101 14.7673 11.5534 14.6967C11.3471 14.6559 11.1409 14.6206 10.9365 14.576C10.8585 14.5593 10.8176 14.5816 10.7748 14.6447C10.5853 14.9141 10.3958 15.1834 10.197 15.4454C9.16946 16.8014 7.23521 16.781 6.22441 15.4064C6.04417 15.1611 5.86396 14.9159 5.69302 14.6633C5.63356 14.576 5.57774 14.563 5.47927 14.5816C5.09278 14.6559 4.70444 14.745 4.31424 14.7859C3.09533 14.9141 1.9471 14.0484 1.69812 12.841C1.60521 12.3933 1.66278 11.9567 1.75755 11.5202C1.80028 11.3233 1.83185 11.1245 1.87458 10.9276C1.88945 10.857 1.87085 10.8161 1.81325 10.7753C1.53825 10.5802 1.26141 10.387 0.991989 10.1827C-0.332832 9.17769 -0.330966 7.25874 0.999429 6.25748C1.25956 6.06242 1.52346 5.87294 1.79102 5.68904C1.87278 5.63331 1.88944 5.57759 1.87086 5.48656C1.7984 5.12804 1.71663 4.76951 1.67017 4.40727C1.48437 2.94531 2.63267 1.65053 4.27894 1.64867V1.64867ZM4.16744 8.54237C5.24514 9.64767 6.31919 10.7474 7.4006 11.8545C9.04129 10.1938 10.6671 8.5498 12.2799 6.91879C11.9213 6.55841 11.533 6.17017 11.1242 5.75963C9.88673 6.99867 8.64359 8.24702 7.37637 9.51578C6.67959 8.8136 5.98471 8.11512 5.29164 7.4185C4.90516 7.80675 4.51862 8.19313 4.16744 8.54237V8.54237Z" fill="black"/>
</svg>
